<?xml version="1.0" standalone="no"?>
<!DOCTYPE svg PUBLIC "-//W3C//DTD SVG 20010904//EN"
 "http://www.w3.org/TR/2001/REC-SVG-20010904/DTD/svg10.dtd">
<svg version="1.0" xmlns="http://www.w3.org/2000/svg"
 width="500.000000pt" height="500.000000pt" viewBox="0 0 500.000000 500.000000"
 preserveAspectRatio="xMidYMid meet">
<metadata>
Created by potrace 1.14, written by Peter Selinger 2001-2017
</metadata>
<g transform="translate(0.000000,500.000000) scale(0.100000,-0.100000)"
fill="#000000" stroke="none">
<path d="M3205 4157 c-95 -32 -179 -132 -219 -259 -4 -15 -9 -15 -57 3 -29 11
-62 25 -73 31 -12 6 -52 20 -91 30 -70 19 -79 21 -145 32 -19 3 -60 10 -90 16
-124 22 -296 30 -418 18 -155 -14 -207 -20 -213 -24 -4 -2 -24 -6 -45 -10 -22
-3 -64 -12 -94 -20 -30 -9 -72 -20 -93 -25 -21 -5 -45 -13 -55 -18 -19 -11
-55 -23 -60 -21 -2 1 -23 -10 -47 -25 -25 -14 -46 -25 -46 -23 -1 2 -3 13 -4
24 -3 33 -71 139 -111 174 -67 58 -139 71 -219 38 -140 -58 -307 -319 -299
-468 0 -14 2 -36 3 -50 4 -73 111 -128 260 -134 25 -2 46 -7 48 -13 2 -6 -8
-55 -22 -109 -14 -55 -28 -110 -31 -123 -3 -14 -7 -28 -9 -32 -3 -4 -7 -24
-11 -44 -3 -21 -8 -47 -10 -59 -2 -11 -7 -37 -10 -56 -3 -19 -7 -42 -9 -50 -3
-8 -7 -31 -9 -50 -3 -19 -8 -57 -12 -85 -4 -27 -8 -63 -10 -80 -1 -16 -5 -48
-8 -70 -2 -22 -7 -69 -11 -105 -3 -36 -8 -78 -11 -93 -3 -22 -15 -303 -15
-372 0 -84 17 -385 25 -420 7 -34 15 -97 22 -160 3 -33 8 -62 9 -65 2 -3 6
-25 10 -50 4 -24 10 -51 14 -60 5 -8 14 -40 21 -70 7 -30 17 -62 21 -70 5 -8
20 -46 35 -85 33 -85 118 -218 167 -263 21 -18 37 -29 37 -25 0 4 7 -2 15 -14
37 -53 25 -52 1165 -54 927 -1 1059 1 1090 14 49 21 195 106 272 158 71 48
210 185 233 229 8 16 26 46 40 66 14 20 30 54 37 75 6 22 14 39 17 39 4 0 8 8
9 18 1 9 8 46 16 82 10 45 14 106 11 195 -4 169 -18 234 -79 373 -32 74 -111
219 -126 232 -4 3 -21 27 -40 54 -38 57 -284 306 -301 306 -6 0 -19 8 -28 18
-25 27 -103 82 -118 82 -7 0 -13 4 -13 9 0 5 -20 19 -44 31 -62 29 -70 43 -72
118 -2 71 -12 188 -19 237 -3 17 -7 55 -10 85 -3 30 -11 80 -17 110 -20 93
-20 92 42 95 75 3 149 15 156 26 3 5 9 7 14 4 10 -6 60 15 60 26 0 4 9 10 19
14 28 9 61 86 61 142 0 82 -58 249 -102 297 -10 11 -18 25 -18 32 0 21 -163
180 -210 204 -50 25 -129 33 -175 17z m-255 -911 c0 -8 4 -17 9 -20 5 -3 8
-48 8 -99 -2 -70 -6 -100 -20 -120 -41 -62 -79 -6 -79 115 0 99 8 134 34 152
17 13 23 13 34 1 8 -7 14 -20 14 -29z m-1372 -18 c11 -13 28 -106 23 -123 -1
-5 -3 -19 -3 -30 -1 -44 -20 -85 -38 -85 -37 0 -54 118 -30 204 13 46 28 57
48 34z"/>
</g>
</svg>
