<?xml version="1.0" standalone="no"?>
<!DOCTYPE svg PUBLIC "-//W3C//DTD SVG 20010904//EN"
 "http://www.w3.org/TR/2001/REC-SVG-20010904/DTD/svg10.dtd">
<svg version="1.0" xmlns="http://www.w3.org/2000/svg"
 width="612.000000pt" height="612.000000pt" viewBox="0 0 612.000000 612.000000"
 preserveAspectRatio="xMidYMid meet">
<metadata>
Created by potrace 1.14, written by Peter Selinger 2001-2017
</metadata>
<g transform="translate(0.000000,612.000000) scale(0.100000,-0.100000)"
fill="#000000" stroke="none">
<path d="M1463 5033 c9 -2 23 -2 30 0 6 3 -1 5 -18 5 -16 0 -22 -2 -12 -5z"/>
<path d="M1415 5018 c22 -13 169 -18 156 -5 -5 5 -24 8 -42 7 -19 0 -44 -1
-57 -1 -12 -1 -35 2 -50 5 -25 6 -25 5 -7 -6z"/>
<path d="M1388 5003 c7 -3 16 -2 19 1 4 3 -2 6 -13 5 -11 0 -14 -3 -6 -6z"/>
<path d="M1340 4991 c0 -5 -9 -13 -21 -16 -21 -7 -139 -121 -138 -133 4 -28
-2 -41 -18 -35 -17 7 -17 6 0 -20 l17 -27 -30 4 c-22 2 -33 -2 -40 -15 -14
-25 -13 -49 1 -29 9 13 10 13 6 0 -2 -8 -9 -15 -15 -15 -7 0 -12 -4 -11 -9 0
-5 -3 -12 -8 -15 -13 -10 -36 -54 -24 -46 14 8 14 -5 1 -25 -9 -13 -10 -13
-10 0 -1 8 -7 -3 -15 -25 -15 -42 -20 -75 -6 -40 5 12 8 -12 7 -62 0 -44 -5
-79 -10 -76 -5 3 -6 31 -2 62 4 38 3 51 -4 41 -29 -44 2 -171 52 -218 29 -26
128 -67 128 -52 0 6 12 10 28 9 l27 -1 -25 -7 c-24 -7 -24 -7 9 -14 18 -4 54
-6 80 -6 l46 2 -40 7 -40 7 43 2 c31 1 42 -3 42 -14 0 -9 6 -12 15 -9 8 4 15
12 15 20 0 8 -7 14 -15 14 -10 0 -15 10 -15 33 0 17 -3 43 -6 57 -4 20 -3 22
5 10 6 -8 11 -32 11 -52 0 -25 5 -38 14 -38 9 0 12 8 9 24 -6 28 13 67 30 63
7 -1 12 9 12 24 0 16 4 25 11 22 16 -6 27 28 14 41 -8 8 -9 6 -5 -6 4 -10 3
-18 -3 -18 -11 0 -26 49 -17 58 3 3 5 -1 5 -9 0 -8 8 -15 18 -16 11 -1 29 19
51 54 19 31 58 78 87 106 49 46 59 67 33 67 -6 0 -7 -4 -4 -10 4 -6 -1 -7 -12
-3 -15 5 -16 4 -7 -8 9 -11 9 -17 -1 -26 -10 -9 -12 -6 -12 13 0 33 22 50 50
37 18 -9 28 -6 48 11 15 11 35 27 45 34 18 13 18 13 -1 7 -20 -5 -20 -5 -1 10
16 12 22 12 28 2 6 -9 8 -8 8 3 0 8 -5 22 -10 30 -5 8 -10 10 -10 4 0 -7 -18
-21 -40 -32 -22 -11 -40 -15 -40 -10 0 5 10 12 21 16 19 7 19 10 7 23 -8 8
-18 21 -21 29 -4 8 -5 3 -2 -12 l5 -28 -249 0 c-229 0 -250 1 -244 17 5 12 3
14 -7 8 -10 -6 -12 -4 -5 11 4 10 8 27 9 37 4 36 133 146 155 133 5 -3 7 3 4
14 -6 21 -13 27 -13 11z m364 -290 c-10 -10 -21 -17 -23 -15 -6 6 20 34 32 34
6 0 2 -8 -9 -19z m-604 -59 c0 -9 -4 -23 -8 -29 -5 -8 -8 1 -8 22 0 18 4 31 8
29 4 -3 8 -13 8 -22z m464 -55 c-4 -13 -44 -41 -44 -32 0 8 34 45 42 45 4 0 5
-6 2 -13z m-96 -87 c-7 -10 -14 -18 -15 -16 -6 6 9 36 18 36 5 0 4 -9 -3 -20z
m29 -13 c-13 -30 -30 -37 -20 -9 7 21 25 44 29 39 2 -2 -2 -15 -9 -30z m-381
-157 c1 -14 -1 -19 -3 -12 -6 17 -23 15 -23 -3 0 -8 5 -15 10 -15 6 0 10 -5
10 -12 0 -7 -16 3 -35 22 -37 36 -33 51 15 47 19 -2 25 -8 26 -27z m114 -60
c21 -2 20 -3 -10 -10 -35 -9 -87 -3 -95 9 -3 6 35 7 105 1z m113 -17 c-13 -2
-33 -2 -45 0 -13 2 -3 4 22 4 25 0 35 -2 23 -4z"/>
<path d="M1060 4340 c0 -5 7 -10 15 -10 8 0 15 5 15 10 0 6 -7 10 -15 10 -8 0
-15 -4 -15 -10z"/>
<path d="M1606 4971 c-7 -10 3 -40 13 -42 3 -1 21 -3 39 -5 l33 -4 -33 30
c-35 32 -43 35 -52 21z m38 -27 c4 -11 2 -12 -14 -1 -11 6 -20 15 -20 19 0 12
28 -3 34 -18z"/>
<path d="M4100 4960 c0 -5 7 -10 16 -10 8 0 12 5 9 10 -3 6 -10 10 -16 10 -5
0 -9 -4 -9 -10z"/>
<path d="M1306 4937 c-16 -12 -14 -13 17 -13 24 0 33 4 30 13 -3 7 -11 13 -17
13 -7 0 -20 -6 -30 -13z"/>
<path d="M2891 4896 c-13 -27 -55 -378 -60 -516 -11 -262 -11 -429 -1 -555 6
-82 14 -152 16 -154 6 -7 34 21 29 29 -3 5 4 6 15 3 15 -4 19 -11 14 -25 -3
-11 -7 -26 -8 -32 -1 -6 -8 -29 -15 -50 -15 -43 -7 -99 32 -211 41 -122 105
-225 191 -310 63 -63 132 -104 225 -136 77 -27 101 -25 101 7 l0 26 57 -32
c55 -31 60 -32 138 -26 138 10 295 54 514 142 93 37 94 38 73 55 -12 9 -22 20
-22 23 0 3 30 6 68 6 57 1 78 6 141 39 l74 38 -69 49 c-75 54 -170 114 -182
114 -4 0 -17 8 -30 18 -20 16 -23 28 -28 122 -8 180 -35 421 -56 515 -11 50
-21 102 -24 117 -6 46 -79 254 -94 268 -3 3 -13 22 -24 42 -28 55 -99 138
-114 133 -7 -3 -10 -1 -7 5 12 20 -254 185 -287 177 -7 -2 -9 -2 -4 1 9 5 -72
39 -111 46 -12 3 -31 10 -43 16 -12 6 -28 9 -36 6 -9 -4 -12 -2 -8 5 4 8 -4 9
-27 4 -25 -4 -30 -4 -19 4 12 9 10 11 -10 10 -14 0 -56 6 -95 14 -214 45 -296
48 -314 13z m324 -26 c13 -5 14 -9 5 -9 -8 0 -24 4 -35 9 -13 5 -14 9 -5 9 8
0 24 -4 35 -9z m438 -177 c-7 -2 -19 -2 -25 0 -7 3 -2 5 12 5 14 0 19 -2 13
-5z m-47 -715 c22 -42 30 -181 15 -246 -7 -28 -22 -59 -33 -69 -19 -17 -20
-17 -38 5 -43 53 -50 228 -13 307 21 44 47 45 69 3z"/>
<path d="M1248 4881 l-28 -29 23 -6 c35 -9 36 -8 34 29 -1 19 -2 35 -2 35 0 0
-12 -13 -27 -29z m22 -21 c0 -5 -4 -10 -10 -10 -5 0 -10 5 -10 10 0 6 5 10 10
10 6 0 10 -4 10 -10z"/>
<path d="M1692 4884 c-15 -16 -16 -34 -2 -34 6 0 10 7 10 16 0 9 5 12 12 8 8
-5 4 -13 -11 -25 -14 -11 -17 -20 -11 -24 6 -4 18 1 25 11 13 18 14 18 9 -2
-4 -15 0 -23 14 -26 18 -5 18 -4 4 26 -28 57 -36 65 -50 50z"/>
<path d="M3910 4890 c-8 -5 -10 -10 -5 -10 6 0 17 5 25 10 8 5 11 10 5 10 -5
0 -17 -5 -25 -10z"/>
<path d="M3785 4820 c-3 -5 -1 -10 4 -10 6 0 11 5 11 10 0 6 -2 10 -4 10 -3 0
-8 -4 -11 -10z"/>
<path d="M1710 4790 c0 -5 9 -14 20 -20 22 -12 27 -1 8 18 -14 14 -28 16 -28
2z"/>
<path d="M1130 4780 c0 -5 5 -10 10 -10 6 0 10 5 10 10 0 6 -4 10 -10 10 -5 0
-10 -4 -10 -10z"/>
<path d="M1410 4298 c0 -19 2 -20 10 -8 13 19 13 30 0 30 -5 0 -10 -10 -10
-22z"/>
<path d="M1835 4028 c-14 -13 -37 -54 -52 -93 -22 -60 -27 -91 -31 -216 -4
-125 -1 -157 17 -228 57 -228 165 -227 223 2 17 69 20 102 15 226 -5 164 -27
247 -77 301 -33 36 -60 38 -95 8z m106 -100 c21 -50 18 -207 -4 -241 -41 -63
-72 -7 -72 128 0 50 6 102 12 118 17 38 47 35 64 -5z"/>
<path d="M1183 2503 c4 -175 11 -356 16 -403 18 -157 44 -320 52 -320 11 0
176 135 237 194 44 43 56 62 73 120 15 49 23 65 30 55 5 -8 9 -22 9 -32 0 -15
2 -16 13 -5 20 20 67 96 95 153 34 69 41 168 16 221 -21 46 -100 127 -164 170
-71 47 -178 97 -191 88 -7 -4 -9 -3 -6 3 4 7 -25 24 -71 42 -127 51 -116 81
-109 -286z"/>
<path d="M5005 2298 c-187 -197 -272 -330 -282 -449 -7 -68 23 -142 83 -208
l38 -42 14 28 15 28 28 -62 c22 -49 35 -66 66 -81 80 -41 78 -42 122 50 69
145 92 251 91 418 0 63 -7 153 -15 200 -16 92 -52 210 -64 210 -4 0 -47 -42
-96 -92z"/>
</g>
</svg>
